<svg width="24" height="24" viewBox="0 0 24 24" fill="none" xmlns="http://www.w3.org/2000/svg">
<mask id="mask0_1404_19959" style="mask-type:alpha" maskUnits="userSpaceOnUse" x="-4" y="0" width="32" height="24">
<rect x="-4" width="32" height="24" fill="white"/>
</mask>
<g mask="url(#mask0_1404_19959)">
<path fill-rule="evenodd" clip-rule="evenodd" d="M-4 0H28V24H-4V0Z" fill="#F7FCFF"/>
<path fill-rule="evenodd" clip-rule="evenodd" d="M-4 14.666V16.666H28V14.666H-4Z" fill="#E31D1C"/>
<path fill-rule="evenodd" clip-rule="evenodd" d="M-4 18.334V20.334H28V18.334H-4Z" fill="#E31D1C"/>
<path fill-rule="evenodd" clip-rule="evenodd" d="M-4 7.33398V9.33398H28V7.33398H-4Z" fill="#E31D1C"/>
<path fill-rule="evenodd" clip-rule="evenodd" d="M-4 22V24H28V22H-4Z" fill="#E31D1C"/>
<path fill-rule="evenodd" clip-rule="evenodd" d="M-4 11V13H28V11H-4Z" fill="#E31D1C"/>
<path fill-rule="evenodd" clip-rule="evenodd" d="M-4 0V2H28V0H-4Z" fill="#E31D1C"/>
<path fill-rule="evenodd" clip-rule="evenodd" d="M-4 3.66602V5.66602H28V3.66602H-4Z" fill="#E31D1C"/>
<rect x="-4" width="20" height="13" fill="#2E42A5"/>
<path fill-rule="evenodd" clip-rule="evenodd" d="M-2.27681 2.93822L-3.00269 3.4471L-2.75763 2.54149L-3.40234 1.96758H-2.56026L-2.27783 1.22852L-1.94666 1.96758H-1.2288L-1.79284 2.54149L-1.57447 3.4471L-2.27681 2.93822ZM1.72319 2.93822L0.997308 3.4471L1.24237 2.54149L0.597656 1.96758H1.43974L1.72217 1.22852L2.05334 1.96758H2.7712L2.20716 2.54149L2.42553 3.4471L1.72319 2.93822ZM4.99731 3.4471L5.72319 2.93822L6.42553 3.4471L6.20716 2.54149L6.7712 1.96758H6.05334L5.72217 1.22852L5.43974 1.96758H4.59766L5.24237 2.54149L4.99731 3.4471ZM9.72319 2.93822L8.99731 3.4471L9.24237 2.54149L8.59766 1.96758H9.43974L9.72217 1.22852L10.0533 1.96758H10.7712L10.2072 2.54149L10.4255 3.4471L9.72319 2.93822ZM-3.00269 7.4471L-2.27681 6.93822L-1.57447 7.4471L-1.79284 6.54149L-1.2288 5.96758H-1.94666L-2.27783 5.22852L-2.56026 5.96758H-3.40234L-2.75763 6.54149L-3.00269 7.4471ZM1.72319 6.93822L0.997308 7.4471L1.24237 6.54149L0.597656 5.96758H1.43974L1.72217 5.22852L2.05334 5.96758H2.7712L2.20716 6.54149L2.42553 7.4471L1.72319 6.93822ZM4.99731 7.4471L5.72319 6.93822L6.42553 7.4471L6.20716 6.54149L6.7712 5.96758H6.05334L5.72217 5.22852L5.43974 5.96758H4.59766L5.24237 6.54149L4.99731 7.4471ZM9.72319 6.93822L8.99731 7.4471L9.24237 6.54149L8.59766 5.96758H9.43974L9.72217 5.22852L10.0533 5.96758H10.7712L10.2072 6.54149L10.4255 7.4471L9.72319 6.93822ZM-3.00269 11.4471L-2.27681 10.9382L-1.57447 11.4471L-1.79284 10.5415L-1.2288 9.96758H-1.94666L-2.27783 9.22852L-2.56026 9.96758H-3.40234L-2.75763 10.5415L-3.00269 11.4471ZM1.72319 10.9382L0.997308 11.4471L1.24237 10.5415L0.597656 9.96758H1.43974L1.72217 9.22852L2.05334 9.96758H2.7712L2.20716 10.5415L2.42553 11.4471L1.72319 10.9382ZM4.99731 11.4471L5.72319 10.9382L6.42553 11.4471L6.20716 10.5415L6.7712 9.96758H6.05334L5.72217 9.22852L5.43974 9.96758H4.59766L5.24237 10.5415L4.99731 11.4471ZM9.72319 10.9382L8.99731 11.4471L9.24237 10.5415L8.59766 9.96758H9.43974L9.72217 9.22852L10.0533 9.96758H10.7712L10.2072 10.5415L10.4255 11.4471L9.72319 10.9382ZM12.9973 3.4471L13.7232 2.93822L14.4255 3.4471L14.2072 2.54149L14.7712 1.96758H14.0533L13.7222 1.22852L13.4397 1.96758H12.5977L13.2424 2.54149L12.9973 3.4471ZM13.7232 6.93822L12.9973 7.4471L13.2424 6.54149L12.5977 5.96758H13.4397L13.7222 5.22852L14.0533 5.96758H14.7712L14.2072 6.54149L14.4255 7.4471L13.7232 6.93822ZM12.9973 11.4471L13.7232 10.9382L14.4255 11.4471L14.2072 10.5415L14.7712 9.96758H14.0533L13.7222 9.22852L13.4397 9.96758H12.5977L13.2424 10.5415L12.9973 11.4471ZM-0.276813 4.93822L-1.00269 5.4471L-0.757627 4.54149L-1.40234 3.96758H-0.560256L-0.277827 3.22852L0.053344 3.96758H0.7712L0.207164 4.54149L0.425525 5.4471L-0.276813 4.93822ZM2.99731 5.4471L3.72319 4.93822L4.42553 5.4471L4.20716 4.54149L4.7712 3.96758H4.05334L3.72217 3.22852L3.43974 3.96758H2.59766L3.24237 4.54149L2.99731 5.4471ZM7.72319 4.93822L6.99731 5.4471L7.24237 4.54149L6.59766 3.96758H7.43974L7.72217 3.22852L8.05334 3.96758H8.7712L8.20716 4.54149L8.42553 5.4471L7.72319 4.93822ZM-1.00269 9.44711L-0.276813 8.93822L0.425525 9.44711L0.207164 8.54149L0.7712 7.96758H0.053344L-0.277827 7.22852L-0.560256 7.96758H-1.40234L-0.757627 8.54149L-1.00269 9.44711ZM3.72319 8.93822L2.99731 9.44711L3.24237 8.54149L2.59766 7.96758H3.43974L3.72217 7.22852L4.05334 7.96758H4.7712L4.20716 8.54149L4.42553 9.44711L3.72319 8.93822ZM6.99731 9.44711L7.72319 8.93822L8.42553 9.44711L8.20716 8.54149L8.7712 7.96758H8.05334L7.72217 7.22852L7.43974 7.96758H6.59766L7.24237 8.54149L6.99731 9.44711ZM11.7232 4.93822L10.9973 5.4471L11.2424 4.54149L10.5977 3.96758H11.4397L11.7222 3.22852L12.0533 3.96758H12.7712L12.2072 4.54149L12.4255 5.4471L11.7232 4.93822ZM10.9973 9.44711L11.7232 8.93822L12.4255 9.44711L12.2072 8.54149L12.7712 7.96758H12.0533L11.7222 7.22852L11.4397 7.96758H10.5977L11.2424 8.54149L10.9973 9.44711Z" fill="#F7FCFF"/>
</g>
</svg>
