<svg width="145" height="38" viewBox="0 0 145 38" fill="none" xmlns="http://www.w3.org/2000/svg">
<path d="M73.7885 10.5105H70.4191V27.495H67.16V10.5105H70.4191L76.3746 27.495H79.744H83.0031V10.5105H79.744V27.495L73.7885 10.5105Z" fill="#171142"/>
<path d="M138.388 10.5105H135.019L129.063 27.495H125.694L131.649 10.5105H135.019L138.804 21.3059H133.911L132.826 24.4004H139.889L140.974 27.495H144.344L138.388 10.5105Z" fill="#171142"/>
<path d="M113.262 10.5105H116.521V24.4004H123.651L122.566 27.495H113.262V10.5105Z" fill="#171142"/>
<path d="M106.478 10.5105H109.737V27.495H106.478V10.5105Z" fill="#171142"/>
<path d="M94.6743 27.728C93.4551 27.728 92.3102 27.5069 91.2392 27.0648C90.1687 26.6226 89.2347 26.0101 88.4375 25.2267C87.6404 24.4434 87.0075 23.5205 86.5385 22.4581C86.0695 21.3956 85.8351 20.2439 85.8351 19.0029C85.8351 17.7777 86.054 16.6336 86.4916 15.571C86.9294 14.5085 87.5467 13.5857 88.3438 12.8023C89.1409 12.0191 90.1024 11.4025 91.2279 10.9527C92.3531 10.5029 93.5959 10.2778 94.9558 10.2778C95.9406 10.2778 96.8707 10.4252 97.7459 10.7199C98.6213 11.0145 99.4106 11.4295 100.114 11.9646C100.817 12.4998 101.415 13.1279 101.908 13.8493C102.4 14.5704 102.763 15.3653 102.998 16.2339H99.2933C98.9182 15.3808 98.3477 14.706 97.5817 14.2097C96.8158 13.7134 95.8469 13.4652 94.6743 13.4652C93.8615 13.4652 93.1152 13.6087 92.4351 13.8956C91.7551 14.1824 91.1651 14.5743 90.6649 15.0706C90.1648 15.5669 89.7741 16.1524 89.4926 16.8272C89.2113 17.502 89.0707 18.2271 89.0707 19.0027C89.0707 19.7937 89.2192 20.5306 89.5161 21.213C89.8131 21.8956 90.2156 22.4811 90.7238 22.9696C91.2318 23.4581 91.8257 23.8422 92.5058 24.1213C93.1856 24.4004 93.9086 24.5401 94.6745 24.5401C96.0969 24.5401 97.2303 24.2221 98.0743 23.5862C98.9185 22.9501 99.4967 22.1126 99.8093 21.0732H94.5574V17.9789H103.303V19.1888C103.303 20.321 103.104 21.4068 102.705 22.4462C102.306 23.4854 101.736 24.3928 100.993 25.1684C100.251 25.9439 99.3484 26.5644 98.2855 27.0298C97.2226 27.495 96.0189 27.7277 94.6747 27.7277L94.6743 27.728Z" fill="#171142"/>
<path d="M55.3824 27.7277C54.163 27.7277 53.022 27.4988 51.9591 27.0412C50.8962 26.5836 49.9703 25.9631 49.1808 25.1799C48.3915 24.3965 47.7701 23.4737 47.3168 22.4112C46.8636 21.3486 46.6368 20.2125 46.6368 19.0027C46.6368 17.7928 46.8633 16.6606 47.3168 15.6059C47.7701 14.5511 48.3915 13.6281 49.1808 12.8371C49.9703 12.0461 50.8965 11.4217 51.9591 10.9643C53.022 10.5067 54.163 10.2778 55.3824 10.2778C56.6016 10.2778 57.7426 10.5065 58.8055 10.9643C59.8684 11.4219 60.7985 12.0461 61.5956 12.8371C62.3927 13.6281 63.018 14.5511 63.4713 15.6059C63.9246 16.6606 64.1514 17.793 64.1514 19.0027C64.1514 20.2125 63.9246 21.3486 63.4713 22.4112C63.018 23.4737 62.393 24.3965 61.5956 25.1799C60.7985 25.9631 59.8684 26.5834 58.8055 27.0412C57.7426 27.4988 56.6016 27.7277 55.3824 27.7277ZM55.3824 24.5401C56.1484 24.5401 56.8672 24.3928 57.5394 24.0979C58.2116 23.8032 58.7979 23.4075 59.2978 22.9114C59.798 22.4151 60.1928 21.8296 60.4819 21.1548C60.771 20.48 60.9156 19.7627 60.9156 19.0027C60.9156 18.2426 60.771 17.5254 60.4819 16.8505C60.1928 16.1757 59.798 15.5903 59.2978 15.0939C58.7976 14.5976 58.2114 14.2021 57.5394 13.9072C56.8672 13.6126 56.1484 13.4652 55.3824 13.4652C54.6165 13.4652 53.8974 13.6126 53.2252 13.9072C52.5531 14.2019 51.9709 14.5974 51.4786 15.0939C50.9861 15.5903 50.5954 16.1757 50.3063 16.8505C50.0171 17.5254 49.8726 18.2428 49.8726 19.0027C49.8726 19.7627 50.0171 20.4802 50.3063 21.1548C50.5954 21.8296 50.9863 22.4151 51.4786 22.9114C51.9709 23.4077 52.5533 23.8032 53.2252 24.0979C53.8974 24.3926 54.6163 24.5401 55.3824 24.5401Z" fill="#171142"/>
<path fill-rule="evenodd" clip-rule="evenodd" d="M16.5165 12.6328L19.1741 15.2699L21.8319 12.6328V0.538574H16.5165V12.6328Z" fill="#15D68C"/>
<path fill-rule="evenodd" clip-rule="evenodd" d="M21.8316 12.6331V16.3626H25.59L34.2079 7.81087L30.4495 4.0813L21.8316 12.6331Z" fill="#5414B5"/>
<path fill-rule="evenodd" clip-rule="evenodd" d="M25.5909 16.3643L22.9333 19.0017L25.5909 21.6388H37.7786V16.3643H25.5909Z" fill="#FFCC00"/>
<path fill-rule="evenodd" clip-rule="evenodd" d="M25.59 21.6396H21.8316V25.3694L30.4495 33.9212L34.2079 30.1914L25.59 21.6396Z" fill="#3472ED"/>
<path fill-rule="evenodd" clip-rule="evenodd" d="M16.5165 25.3676L19.1741 22.7302L21.8319 25.3676V37.4616H16.5165V25.3676Z" fill="#15D68C"/>
<path fill-rule="evenodd" clip-rule="evenodd" d="M12.7559 21.6396H16.5145V25.3694L7.89662 33.9212L4.138 30.1914L12.7559 21.6396Z" fill="#5414B5"/>
<path fill-rule="evenodd" clip-rule="evenodd" d="M12.7563 16.3643L15.4139 19.0017L12.7563 21.6388H0.568848V16.3643H12.7563Z" fill="#FFCC00"/>
<path fill-rule="evenodd" clip-rule="evenodd" d="M16.5145 12.6331V16.3626H12.7559L4.138 7.81087L7.89662 4.0813L16.5145 12.6331Z" fill="#3472ED"/>
</svg>
